# Created by Kenney (www.kenney.nl)

mtllib b.mtl

v 1.25 -1.75 0.125
v 1.25 -1.75 -0.125
v 0.75 -1.75 0.125
v 0.75 -1.75 -0.125
v 0.75 2.25 -0.125
v 0.75 2.25 0.125
v 1.25 2.25 -0.125
v 1.25 2.25 0.125
v 0.75 2 0.125
v 0.75 2 -0.125
v -1 2 0.125
v -1 2 -0.125
v -1 2.25 -0.125
v -1 2.25 0.125
v 1.5 -1.5 0.125
v 1.5 -1.5 -0.125
v 1.25 -1.5 0.125
v 1.25 -1.5 -0.125
v 1.25 2 -0.125
v 1.25 2 0.125
v 1.5 2 -0.125
v 1.5 2 0.125
v 0.75 1.25 0.125
v 0.75 1.25 -0.125
v 0.5 1.25 0.125
v 0.5 1.25 -0.125
v 0.5 2 -0.125
v 0.5 2 0.125
v 0.5 1.75 0.125
v 0.5 1.75 -0.125
v -1.25 1.75 0.125
v -1.25 1.75 -0.125
v -1.25 2 -0.125
v -1.25 2 0.125
v 0.5 1.5 0.125
v 0.5 1.5 -0.125
v -1.5 1.5 0.125
v -1.5 1.5 -0.125
v -1.5 1.75 -0.125
v -1.5 1.75 0.125
v -0.5 1.25 0.125
v -0.5 1.25 -0.125
v -1.5 1.25 0.125
v -1.5 1.25 -0.125
v -0.5 1.5 -0.125
v -0.5 1.5 0.125
v -0.75 -1.5 0.125
v -0.75 -1.5 -0.125
v -1 -1.5 0.125
v -1 -1.5 -0.125
v -1 1.25 -0.125
v -1 1.25 0.125
v -0.75 1.25 -0.125
v -0.75 1.25 0.125
v -1 1 0.125
v -1 1 -0.125
v -1.5 1 0.125
v -1.5 1 -0.125
v -1 -1.25 0.125
v -1 -1.25 -0.125
v -1.25 -1.25 0.125
v -1.25 -1.25 -0.125
v -1.25 1 -0.125
v -1.25 1 0.125
v -1.25 0.75 0.125
v -1.25 0.75 -0.125
v -1.5 0.75 0.125
v -1.5 0.75 -0.125
v 0.75 -0.25 0.125
v 0.75 -0.25 -0.125
v 0.5 -0.25 0.125
v 0.5 -0.25 -0.125
v 0.5 0.75 -0.125
v 0.5 0.75 0.125
v 0.75 0.75 -0.125
v 0.75 0.75 0.125
v -0.5 -0.25 0.125
v -0.5 -0.25 -0.125
v -0.75 -0.25 0.125
v -0.75 -0.25 -0.125
v -0.75 0.75 -0.125
v -0.75 0.75 0.125
v -0.5 0.75 -0.125
v -0.5 0.75 0.125
v -1.25 0.5 0.125
v -1.25 0.5 -0.125
v -1.5 0.5 0.125
v -1.5 0.5 -0.125
v 0.5 0 0.125
v 0.5 0 -0.125
v -0.5 0 0.125
v -0.5 0 -0.125
v -0.5 0.5 -0.125
v -0.5 0.5 0.125
v 0.5 0.5 -0.125
v 0.5 0.5 0.125
v -1.25 -1 0.125
v -1.25 -1 -0.125
v -1.5 -1 0.125
v -1.5 -1 -0.125
v -1.5 0 -0.125
v -1.5 0 0.125
v -1.25 0 -0.125
v -1.25 0 0.125
v 0.5 -1.75 0.125
v 0.5 -1.75 -0.125
v 0.5 -0.75 -0.125
v 0.5 -0.75 0.125
v 0.75 -0.75 -0.125
v 0.75 -0.75 0.125
v -0.5 -1.75 0.125
v -0.5 -1.75 -0.125
v -0.75 -1.75 0.125
v -0.75 -1.75 -0.125
v -0.75 -0.75 -0.125
v -0.75 -0.75 0.125
v -0.5 -0.75 -0.125
v -0.5 -0.75 0.125
v -0.5 -1 -0.125
v -0.5 -1 0.125
v 0.5 -1 -0.125
v 0.5 -1 0.125

vn 0 -0.25 0
vn -0.25 0 0
vn 0 0 -0.25
vn 0 0 0.25
vn 0.25 0 0
vn 0 0.25 0

vt 0.296875 0.375
vt 0.296875 0.390625
vt 0.328125 0.375
vt 0.328125 0.390625
vt 0.375 0.515625
vt 0.375 0.765625
vt 0.390625 0.515625
vt 0.390625 0.765625
vt 0.078125 0.515625
vt 0.046875 0.515625
vt 0.078125 0.765625
vt 0.046875 0.765625
vt 0.703125 0.515625
vt 0.671875 0.515625
vt 0.703125 0.765625
vt 0.671875 0.765625
vt 0.890625 0.765625
vt 0.890625 0.515625
vt 0.875 0.765625
vt 0.875 0.515625
vt 0.296875 0.875
vt 0.296875 0.890625
vt 0.328125 0.875
vt 0.328125 0.890625
vt 0.4375 0.375
vt 0.4375 0.390625
vt 0.375 0.75
vt 0.390625 0.75
vt 0.1875 0.75
vt 0.078125 0.75
vt 0.1875 0.765625
vt 0.671875 0.75
vt 0.5625 0.75
vt 0.5625 0.765625
vt 0.890625 0.75
vt 0.875 0.75
vt 0.4375 0.875
vt 0.4375 0.890625
vt 0.28125 0.375
vt 0.28125 0.390625
vt 0.375 0.53125
vt 0.390625 0.53125
vt 0.046875 0.53125
vt 0.03125 0.53125
vt 0.046875 0.75
vt 0.03125 0.75
vt 0.71875 0.53125
vt 0.703125 0.53125
vt 0.71875 0.75
vt 0.703125 0.75
vt 0.890625 0.53125
vt 0.875 0.53125
vt 0.28125 0.875
vt 0.28125 0.890625
vt 0.34375 0.375
vt 0.34375 0.390625
vt 0.375 0.703125
vt 0.390625 0.703125
vt 0.09375 0.703125
vt 0.078125 0.703125
vt 0.09375 0.75
vt 0.671875 0.703125
vt 0.65625 0.703125
vt 0.65625 0.75
vt 0.890625 0.703125
vt 0.875 0.703125
vt 0.34375 0.875
vt 0.34375 0.890625
vt 0.453125 0.375
vt 0.453125 0.390625
vt 0.375 0.734375
vt 0.390625 0.734375
vt 0.203125 0.734375
vt 0.09375 0.734375
vt 0.203125 0.75
vt 0.65625 0.734375
vt 0.546875 0.734375
vt 0.546875 0.75
vt 0.890625 0.734375
vt 0.875 0.734375
vt 0.453125 0.875
vt 0.453125 0.890625
vt 0.46875 0.375
vt 0.46875 0.390625
vt 0.375 0.71875
vt 0.390625 0.71875
vt 0.21875 0.71875
vt 0.09375 0.71875
vt 0.21875 0.734375
vt 0.65625 0.71875
vt 0.53125 0.71875
vt 0.53125 0.734375
vt 0.890625 0.71875
vt 0.875 0.71875
vt 0.46875 0.875
vt 0.46875 0.890625
vt 0.40625 0.375
vt 0.40625 0.390625
vt 0.21875 0.703125
vt 0.15625 0.703125
vt 0.15625 0.71875
vt 0.59375 0.703125
vt 0.53125 0.703125
vt 0.59375 0.71875
vt 0.40625 0.875
vt 0.40625 0.890625
vt 0.421875 0.375
vt 0.421875 0.390625
vt 0.1875 0.53125
vt 0.171875 0.53125
vt 0.1875 0.703125
vt 0.171875 0.703125
vt 0.578125 0.53125
vt 0.5625 0.53125
vt 0.578125 0.703125
vt 0.5625 0.703125
vt 0.421875 0.875
vt 0.421875 0.890625
vt 0.375 0.6875
vt 0.390625 0.6875
vt 0.21875 0.6875
vt 0.1875 0.6875
vt 0.5625 0.6875
vt 0.53125 0.6875
vt 0.890625 0.6875
vt 0.875 0.6875
vt 0.375 0.546875
vt 0.390625 0.546875
vt 0.203125 0.546875
vt 0.1875 0.546875
vt 0.203125 0.6875
vt 0.5625 0.546875
vt 0.546875 0.546875
vt 0.546875 0.6875
vt 0.890625 0.546875
vt 0.875 0.546875
vt 0.375 0.671875
vt 0.390625 0.671875
vt 0.21875 0.671875
vt 0.203125 0.671875
vt 0.546875 0.671875
vt 0.53125 0.671875
vt 0.890625 0.671875
vt 0.875 0.671875
vt 0.375 0.609375
vt 0.390625 0.609375
vt 0.09375 0.609375
vt 0.078125 0.609375
vt 0.09375 0.671875
vt 0.078125 0.671875
vt 0.671875 0.609375
vt 0.65625 0.609375
vt 0.671875 0.671875
vt 0.65625 0.671875
vt 0.890625 0.609375
vt 0.875 0.609375
vt 0.171875 0.609375
vt 0.15625 0.609375
vt 0.171875 0.671875
vt 0.15625 0.671875
vt 0.59375 0.609375
vt 0.578125 0.609375
vt 0.59375 0.671875
vt 0.578125 0.671875
vt 0.375 0.65625
vt 0.390625 0.65625
vt 0.21875 0.65625
vt 0.203125 0.65625
vt 0.546875 0.65625
vt 0.53125 0.65625
vt 0.890625 0.65625
vt 0.875 0.65625
vt 0.375 0.625
vt 0.390625 0.625
vt 0.15625 0.625
vt 0.09375 0.625
vt 0.15625 0.65625
vt 0.09375 0.65625
vt 0.65625 0.625
vt 0.59375 0.625
vt 0.65625 0.65625
vt 0.59375 0.65625
vt 0.890625 0.625
vt 0.875 0.625
vt 0.375 0.5625
vt 0.390625 0.5625
vt 0.21875 0.5625
vt 0.203125 0.5625
vt 0.21875 0.625
vt 0.203125 0.625
vt 0.546875 0.5625
vt 0.53125 0.5625
vt 0.546875 0.625
vt 0.53125 0.625
vt 0.890625 0.5625
vt 0.875 0.5625
vt 0.375 0.578125
vt 0.390625 0.578125
vt 0.09375 0.515625
vt 0.09375 0.578125
vt 0.078125 0.578125
vt 0.65625 0.515625
vt 0.671875 0.578125
vt 0.65625 0.578125
vt 0.890625 0.578125
vt 0.875 0.578125
vt 0.171875 0.515625
vt 0.15625 0.515625
vt 0.171875 0.578125
vt 0.15625 0.578125
vt 0.59375 0.515625
vt 0.578125 0.515625
vt 0.59375 0.578125
vt 0.578125 0.578125
vt 0.15625 0.5625
vt 0.09375 0.5625
vt 0.65625 0.5625
vt 0.59375 0.5625

usemtl b

f 3/3/1 2/2/1 1/1/1
f 2/2/1 3/3/1 4/4/1
f 3/7/2 5/6/2 4/5/2
f 5/6/2 3/7/2 6/8/2
f 5/11/3 2/10/3 4/9/3
f 2/10/3 5/11/3 7/12/3
f 8/15/4 3/14/4 1/13/4
f 3/14/4 8/15/4 6/16/4
f 8/19/5 2/18/5 7/17/5
f 2/18/5 8/19/5 1/20/5
f 5/23/6 8/22/6 7/21/6
f 8/22/6 5/23/6 6/24/6
f 11/25/1 10/4/1 9/3/1
f 10/4/1 11/25/1 12/26/1
f 11/28/2 13/6/2 12/27/2
f 13/6/2 11/28/2 14/8/2
f 13/31/3 10/30/3 12/29/3
f 10/30/3 13/31/3 5/11/3
f 6/16/4 11/33/4 9/32/4
f 11/33/4 6/16/4 14/34/4
f 6/19/5 10/35/5 5/17/5
f 10/35/5 6/19/5 9/36/5
f 13/37/6 6/24/6 5/23/6
f 6/24/6 13/37/6 14/38/6
f 17/1/1 16/40/1 15/39/1
f 16/40/1 17/1/1 18/2/1
f 17/42/2 19/27/2 18/41/2
f 19/27/2 17/42/2 20/28/2
f 19/45/3 16/44/3 18/43/3
f 16/44/3 19/45/3 21/46/3
f 22/49/4 17/48/4 15/47/4
f 17/48/4 22/49/4 20/50/4
f 22/36/5 16/51/5 21/35/5
f 16/51/5 22/36/5 15/52/5
f 19/21/6 22/54/6 21/53/6
f 22/54/6 19/21/6 20/22/6
f 25/55/1 24/4/1 23/3/1
f 24/4/1 25/55/1 26/56/1
f 25/58/2 27/27/2 26/57/2
f 27/27/2 25/58/2 28/28/2
f 27/61/3 24/60/3 26/59/3
f 24/60/3 27/61/3 10/30/3
f 9/32/4 25/63/4 23/62/4
f 25/63/4 9/32/4 28/64/4
f 9/36/5 24/65/5 10/35/5
f 24/65/5 9/36/5 23/66/5
f 27/67/6 9/24/6 10/23/6
f 9/24/6 27/67/6 28/68/6
f 31/69/1 30/56/1 29/55/1
f 30/56/1 31/69/1 32/70/1
f 31/72/2 33/27/2 32/71/2
f 33/27/2 31/72/2 34/28/2
f 33/75/3 30/74/3 32/73/3
f 30/74/3 33/75/3 27/61/3
f 28/64/4 31/77/4 29/76/4
f 31/77/4 28/64/4 34/78/4
f 28/36/5 30/79/5 27/35/5
f 30/79/5 28/36/5 29/80/5
f 33/81/6 28/68/6 27/67/6
f 28/68/6 33/81/6 34/82/6
f 37/83/1 36/56/1 35/55/1
f 36/56/1 37/83/1 38/84/1
f 37/86/2 39/71/2 38/85/2
f 39/71/2 37/86/2 40/72/2
f 39/89/3 36/88/3 38/87/3
f 36/88/3 39/89/3 30/74/3
f 29/76/4 37/91/4 35/90/4
f 37/91/4 29/76/4 40/92/4
f 29/80/5 36/93/5 30/79/5
f 36/93/5 29/80/5 35/94/5
f 39/95/6 29/68/6 30/67/6
f 29/68/6 39/95/6 40/96/6
f 43/83/1 42/98/1 41/97/1
f 42/98/1 43/83/1 44/84/1
f 43/58/2 38/85/2 44/57/2
f 38/85/2 43/58/2 37/86/2
f 38/87/3 42/100/3 44/99/3
f 42/100/3 38/87/3 45/101/3
f 46/104/4 43/103/4 41/102/4
f 43/103/4 46/104/4 37/91/4
f 46/94/5 42/65/5 45/93/5
f 42/65/5 46/94/5 41/66/5
f 38/95/6 46/106/6 45/105/6
f 46/106/6 38/95/6 37/96/6
f 49/25/1 48/108/1 47/107/1
f 48/108/1 49/25/1 50/26/1
f 49/42/2 51/57/2 50/41/2
f 51/57/2 49/42/2 52/58/2
f 51/111/3 48/110/3 50/109/3
f 48/110/3 51/111/3 53/112/3
f 54/115/4 49/114/4 47/113/4
f 49/114/4 54/115/4 52/116/4
f 54/66/5 48/51/5 53/65/5
f 48/51/5 54/66/5 47/52/5
f 51/37/6 54/118/6 53/117/6
f 54/118/6 51/37/6 52/38/6
f 57/83/1 56/26/1 55/25/1
f 56/26/1 57/83/1 58/84/1
f 57/120/2 44/57/2 58/119/2
f 44/57/2 57/120/2 43/58/2
f 44/99/3 56/122/3 58/121/3
f 56/122/3 44/99/3 51/111/3
f 52/116/4 57/124/4 55/123/4
f 57/124/4 52/116/4 43/103/4
f 52/66/5 56/125/5 51/65/5
f 56/125/5 52/66/5 55/126/5
f 44/95/6 52/38/6 51/37/6
f 52/38/6 44/95/6 43/96/6
f 61/69/1 60/26/1 59/25/1
f 60/26/1 61/69/1 62/70/1
f 61/128/2 63/119/2 62/127/2
f 63/119/2 61/128/2 64/120/2
f 63/131/3 60/130/3 62/129/3
f 60/130/3 63/131/3 56/122/3
f 55/123/4 61/133/4 59/132/4
f 61/133/4 55/123/4 64/134/4
f 55/126/5 60/135/5 56/125/5
f 60/135/5 55/126/5 59/136/5
f 63/81/6 55/38/6 56/37/6
f 55/38/6 63/81/6 64/82/6
f 67/83/1 66/70/1 65/69/1
f 66/70/1 67/83/1 68/84/1
f 67/138/2 58/119/2 68/137/2
f 58/119/2 67/138/2 57/120/2
f 58/121/3 66/140/3 68/139/3
f 66/140/3 58/121/3 63/131/3
f 64/134/4 67/142/4 65/141/4
f 67/142/4 64/134/4 57/124/4
f 64/126/5 66/143/5 63/125/5
f 66/143/5 64/126/5 65/144/5
f 58/95/6 64/82/6 63/81/6
f 64/82/6 58/95/6 57/96/6
f 71/55/1 70/4/1 69/3/1
f 70/4/1 71/55/1 72/56/1
f 71/146/2 73/137/2 72/145/2
f 73/137/2 71/146/2 74/138/2
f 73/149/3 70/148/3 72/147/3
f 70/148/3 73/149/3 75/150/3
f 76/153/4 71/152/4 69/151/4
f 71/152/4 76/153/4 74/154/4
f 76/144/5 70/155/5 75/143/5
f 70/155/5 76/144/5 69/156/5
f 73/67/6 76/24/6 75/23/6
f 76/24/6 73/67/6 74/68/6
f 79/107/1 78/98/1 77/97/1
f 78/98/1 79/107/1 80/108/1
f 79/146/2 81/137/2 80/145/2
f 81/137/2 79/146/2 82/138/2
f 81/159/3 78/158/3 80/157/3
f 78/158/3 81/159/3 83/160/3
f 84/163/4 79/162/4 77/161/4
f 79/162/4 84/163/4 82/164/4
f 84/144/5 78/155/5 83/143/5
f 78/155/5 84/144/5 77/156/5
f 81/117/6 84/106/6 83/105/6
f 84/106/6 81/117/6 82/118/6
f 87/83/1 86/70/1 85/69/1
f 86/70/1 87/83/1 88/84/1
f 87/166/2 68/137/2 88/165/2
f 68/137/2 87/166/2 67/138/2
f 68/139/3 86/168/3 88/167/3
f 86/168/3 68/139/3 66/140/3
f 65/141/4 87/170/4 85/169/4
f 87/170/4 65/141/4 67/142/4
f 65/144/5 86/171/5 66/143/5
f 86/171/5 65/144/5 85/172/5
f 68/95/6 65/82/6 66/81/6
f 65/82/6 68/95/6 67/96/6
f 91/97/1 90/56/1 89/55/1
f 90/56/1 91/97/1 92/98/1
f 91/174/2 93/165/2 92/173/2
f 93/165/2 91/174/2 94/166/2
f 93/177/3 90/176/3 92/175/3
f 90/176/3 93/177/3 95/178/3
f 96/181/4 91/180/4 89/179/4
f 91/180/4 96/181/4 94/182/4
f 96/172/5 90/183/5 95/171/5
f 90/183/5 96/172/5 89/184/5
f 93/105/6 96/68/6 95/67/6
f 96/68/6 93/105/6 94/106/6
f 99/83/1 98/70/1 97/69/1
f 98/70/1 99/83/1 100/84/1
f 99/186/2 101/173/2 100/185/2
f 101/173/2 99/186/2 102/174/2
f 101/189/3 98/188/3 100/187/3
f 98/188/3 101/189/3 103/190/3
f 104/193/4 99/192/4 97/191/4
f 99/192/4 104/193/4 102/194/4
f 104/184/5 98/195/5 103/183/5
f 98/195/5 104/184/5 97/196/5
f 101/95/6 104/82/6 103/81/6
f 104/82/6 101/95/6 102/96/6
f 105/55/1 4/4/1 3/3/1
f 4/4/1 105/55/1 106/56/1
f 105/7/2 107/197/2 106/5/2
f 107/197/2 105/7/2 108/198/2
f 107/200/3 4/9/3 106/199/3
f 4/9/3 107/200/3 109/201/3
f 110/203/4 105/202/4 3/14/4
f 105/202/4 110/203/4 108/204/4
f 110/206/5 4/18/5 109/205/5
f 4/18/5 110/206/5 3/20/5
f 107/67/6 110/24/6 109/23/6
f 110/24/6 107/67/6 108/68/6
f 113/107/1 112/98/1 111/97/1
f 112/98/1 113/107/1 114/108/1
f 113/7/2 115/197/2 114/5/2
f 115/197/2 113/7/2 116/198/2
f 115/209/3 112/208/3 114/207/3
f 112/208/3 115/209/3 117/210/3
f 118/213/4 113/212/4 111/211/4
f 113/212/4 118/213/4 116/214/4
f 118/206/5 112/18/5 117/205/5
f 112/18/5 118/206/5 111/20/5
f 115/117/6 118/106/6 117/105/6
f 118/106/6 115/117/6 116/118/6
f 111/97/1 106/56/1 105/55/1
f 106/56/1 111/97/1 112/98/1
f 111/7/2 119/185/2 112/5/2
f 119/185/2 111/7/2 120/186/2
f 119/215/3 106/199/3 112/208/3
f 106/199/3 119/215/3 121/216/3
f 122/217/4 111/211/4 105/202/4
f 111/211/4 122/217/4 120/218/4
f 122/196/5 106/18/5 121/195/5
f 106/18/5 122/196/5 105/20/5
f 119/105/6 122/68/6 121/67/6
f 122/68/6 119/105/6 120/106/6
f 11/25/1 10/4/1 9/3/1
f 10/4/1 11/25/1 12/26/1
f 11/28/2 13/6/2 12/27/2
f 13/6/2 11/28/2 14/8/2
f 13/31/3 10/30/3 12/29/3
f 10/30/3 13/31/3 5/11/3
f 6/16/4 11/33/4 9/32/4
f 11/33/4 6/16/4 14/34/4
f 6/19/5 10/35/5 5/17/5
f 10/35/5 6/19/5 9/36/5
f 13/37/6 6/24/6 5/23/6
f 6/24/6 13/37/6 14/38/6
f 31/69/1 30/56/1 29/55/1
f 30/56/1 31/69/1 32/70/1
f 31/72/2 33/27/2 32/71/2
f 33/27/2 31/72/2 34/28/2
f 33/75/3 30/74/3 32/73/3
f 30/74/3 33/75/3 27/61/3
f 28/64/4 31/77/4 29/76/4
f 31/77/4 28/64/4 34/78/4
f 28/36/5 30/79/5 27/35/5
f 30/79/5 28/36/5 29/80/5
f 33/81/6 28/68/6 27/67/6
f 28/68/6 33/81/6 34/82/6
f 57/83/1 56/26/1 55/25/1
f 56/26/1 57/83/1 58/84/1
f 57/120/2 44/57/2 58/119/2
f 44/57/2 57/120/2 43/58/2
f 44/99/3 56/122/3 58/121/3
f 56/122/3 44/99/3 51/111/3
f 52/116/4 57/124/4 55/123/4
f 57/124/4 52/116/4 43/103/4
f 52/66/5 56/125/5 51/65/5
f 56/125/5 52/66/5 55/126/5
f 44/95/6 52/38/6 51/37/6
f 52/38/6 44/95/6 43/96/6
f 67/83/1 66/70/1 65/69/1
f 66/70/1 67/83/1 68/84/1
f 67/138/2 58/119/2 68/137/2
f 58/119/2 67/138/2 57/120/2
f 58/121/3 66/140/3 68/139/3
f 66/140/3 58/121/3 63/131/3
f 64/134/4 67/142/4 65/141/4
f 67/142/4 64/134/4 57/124/4
f 64/126/5 66/143/5 63/125/5
f 66/143/5 64/126/5 65/144/5
f 58/95/6 64/82/6 63/81/6
f 64/82/6 58/95/6 57/96/6

